<?xml version="1.0" standalone="no"?>
<!DOCTYPE svg PUBLIC "-//W3C//DTD SVG 20010904//EN"
 "http://www.w3.org/TR/2001/REC-SVG-20010904/DTD/svg10.dtd">
<svg version="1.0" xmlns="http://www.w3.org/2000/svg"
 width="512.000000pt" height="512.000000pt" viewBox="0 0 512.000000 512.000000"
 preserveAspectRatio="xMidYMid meet">

<g transform="translate(0.000000,512.000000) scale(0.100000,-0.100000)"
fill="#000000" stroke="none">
<path d="M2310 5079 c-986 -110 -1819 -775 -2141 -1707 -98 -286 -139 -532
-139 -839 0 -662 248 -1287 694 -1751 293 -304 691 -540 1107 -656 270 -75
395 -91 709 -91 279 1 396 14 604 66 477 119 894 360 1232 712 368 381 593
832 686 1373 19 110 22 167 23 394 0 314 -16 439 -91 709 -123 440 -384 867
-709 1158 -389 348 -877 566 -1405 628 -134 16 -444 18 -570 4z m-219 -1610
c115 -27 299 -117 335 -164 38 -51 44 -119 12 -164 -31 -46 -66 -70 -110 -77
-31 -5 -54 2 -150 50 -85 43 -134 61 -198 72 -318 56 -626 -134 -722 -446 -34
-112 -32 -265 6 -375 83 -241 273 -399 524 -435 161 -24 324 25 429 128 71 71
92 82 148 82 87 0 145 -57 145 -144 0 -62 -22 -98 -108 -176 -81 -74 -208
-141 -322 -171 -124 -33 -307 -31 -442 4 -345 91 -608 364 -685 711 -25 108
-22 299 5 410 96 386 400 661 794 716 88 12 239 3 339 -21z m986 -939 c32 -19
35 -19 95 -4 98 25 221 15 302 -25 l64 -31 48 24 c102 51 265 58 378 16 64
-24 137 -85 171 -145 43 -72 55 -158 55 -395 0 -188 -3 -220 -19 -256 -37 -82
-123 -113 -200 -72 -76 39 -81 58 -82 313 -1 121 -4 231 -8 245 -9 31 -58 46
-125 36 -77 -12 -80 -21 -86 -291 -6 -263 -8 -272 -87 -307 -84 -37 -177 7
-202 97 -6 23 -11 126 -11 245 0 244 -3 254 -72 258 -53 3 -101 -16 -120 -51
-9 -15 -15 -89 -18 -237 -6 -237 -11 -258 -72 -301 -44 -32 -122 -32 -166 0
-63 45 -63 43 -60 450 3 353 4 370 23 391 54 61 132 77 192 40z"/>
</g>
</svg>
