<?xml version="1.0" standalone="no"?>
<!DOCTYPE svg PUBLIC "-//W3C//DTD SVG 20010904//EN"
 "http://www.w3.org/TR/2001/REC-SVG-20010904/DTD/svg10.dtd">
<svg version="1.0" xmlns="http://www.w3.org/2000/svg"
 width="64.000000pt" height="64.000000pt" viewBox="0 0 64.000000 64.000000"
 preserveAspectRatio="xMidYMid meet">

<g transform="translate(0.000000,64.000000) scale(0.100000,-0.100000)"
fill="#000000" stroke="none">
<path d="M272 617 c-12 -13 -22 -32 -22 -43 0 -12 -14 -27 -37 -39 -70 -38
-103 -111 -103 -232 0 -70 0 -71 -30 -81 -59 -21 -65 -101 -10 -129 14 -7 54
-13 90 -13 62 -1 66 -2 85 -33 11 -17 32 -36 48 -41 38 -14 78 2 102 41 19 31
23 32 85 33 36 0 76 6 90 13 55 28 49 108 -10 129 -29 10 -30 11 -30 77 0 93
-22 159 -66 204 -20 20 -45 39 -55 42 -11 4 -19 16 -19 29 0 29 -40 66 -71 66
-14 0 -35 -10 -47 -23z m68 -32 c11 -13 8 -15 -20 -15 -28 0 -31 2 -20 15 7 8
16 15 20 15 4 0 13 -7 20 -15z m71 -90 c51 -33 70 -81 78 -194 l6 -96 38 -18
c41 -19 48 -41 18 -57 -26 -13 -436 -13 -462 0 -30 16 -23 38 19 57 l37 18 7
102 c9 136 33 179 115 209 47 17 97 10 144 -21z m-56 -435 c-10 -11 -26 -20
-35 -20 -9 0 -25 9 -35 20 -18 20 -17 20 35 20 52 0 53 0 35 -20z"/>
</g>
</svg>
