<?xml version="1.0" standalone="no"?>
<!DOCTYPE svg PUBLIC "-//W3C//DTD SVG 20010904//EN"
 "http://www.w3.org/TR/2001/REC-SVG-20010904/DTD/svg10.dtd">
<svg version="1.0" xmlns="http://www.w3.org/2000/svg"
 width="512.000000pt" height="512.000000pt" viewBox="0 0 512.000000 512.000000"
 preserveAspectRatio="xMidYMid meet">

<g transform="translate(0.000000,512.000000) scale(0.100000,-0.100000)"
fill="#000000" stroke="none">
<path d="M246 5008 c-61 -16 -121 -83 -136 -149 -8 -40 -10 -572 -8 -2089 4
-2295 -5 -2073 83 -2255 98 -203 251 -330 468 -388 l82 -22 1810 0 1810 0 78
23 c221 64 381 195 482 394 84 167 80 112 80 1233 l0 990 -25 45 c-17 29 -41
53 -70 70 l-45 25 -482 3 -483 3 0 981 0 980 -26 49 c-29 52 -80 93 -135 109
-48 14 -3431 11 -3483 -2z m2657 -819 c21 -6 56 -26 77 -45 106 -96 86 -265
-39 -331 l-45 -23 -951 2 -952 3 -41 29 c-50 34 -92 112 -92 170 1 81 60 164
136 191 32 12 203 14 954 15 616 0 928 -4 953 -11z m4 -944 c94 -28 151 -118
140 -223 -7 -70 -42 -123 -100 -151 l-44 -21 -960 2 -959 3 -37 25 c-44 30
-87 109 -87 159 0 94 66 187 146 209 25 6 356 10 945 11 779 1 912 -1 956 -14z
m1703 -1585 c0 -568 -3 -835 -11 -872 -16 -75 -44 -124 -100 -179 -65 -63
-139 -92 -239 -93 -66 -1 -84 3 -142 32 -78 38 -139 101 -176 180 l-27 57 -3
848 -3 847 351 0 350 0 0 -820z m-1665 607 c163 -92 125 -339 -59 -377 -35 -7
-344 -10 -961 -8 -901 3 -910 3 -950 24 -55 28 -102 93 -111 150 -13 88 34
180 110 215 39 18 84 19 986 19 l945 0 40 -23z m-10 -956 c133 -61 155 -239
42 -338 -20 -18 -53 -37 -74 -42 -53 -15 -1843 -15 -1896 0 -79 22 -147 111
-147 194 0 76 55 160 125 191 24 11 210 13 970 13 893 1 942 0 980 -18z"/>
</g>
</svg>
