<?xml version="1.0" standalone="no"?>
<!DOCTYPE svg PUBLIC "-//W3C//DTD SVG 20010904//EN"
 "http://www.w3.org/TR/2001/REC-SVG-20010904/DTD/svg10.dtd">
<svg version="1.0" xmlns="http://www.w3.org/2000/svg"
 width="920.000000pt" height="230.000000pt" viewBox="0 0 920.000000 230.000000"
 preserveAspectRatio="xMidYMid meet">

<g transform="translate(0.000000,230.000000) scale(0.100000,-0.100000)"
fill="#000000" stroke="none">
<path d="M1560 2066 c0 -8 6 -17 13 -20 9 -4 9 -7 0 -12 -6 -3 -21 -14 -34
-25 -25 -22 -40 -25 -36 -6 1 6 -5 12 -13 12 -8 0 -16 -8 -18 -19 -3 -11 0
-16 7 -12 27 17 8 -14 -23 -38 -40 -30 -46 -32 -46 -10 0 9 -7 14 -17 12 -22
-4 -29 -28 -9 -28 21 0 21 -16 0 -24 -22 -8 -24 -8 -21 5 1 6 -4 14 -10 16
-17 6 -29 -27 -14 -36 9 -6 8 -11 -4 -21 -8 -7 -15 -25 -15 -40 0 -20 -46 -86
-176 -251 -96 -123 -228 -293 -292 -376 -128 -167 -143 -177 -174 -112 -23 48
-82 99 -116 99 -65 0 -109 -55 -146 -183 -22 -77 -59 -114 -176 -178 -124 -67
-165 -101 -200 -163 -35 -60 -41 -145 -14 -202 19 -39 137 -154 227 -220 127
-94 199 -117 288 -90 101 29 154 104 200 282 16 65 39 133 50 151 11 18 58 57
104 87 82 54 100 73 115 125 9 33 -4 71 -25 71 -8 0 -41 -14 -72 -30 -63 -34
-89 -37 -121 -14 -36 25 -27 57 41 152 89 121 513 697 554 752 19 25 64 65
101 91 53 36 70 53 81 86 11 29 24 46 47 56 40 20 51 50 29 83 -12 19 -21 23
-37 18 -17 -5 -20 -3 -15 10 5 11 1 16 -13 16 -11 0 -20 -6 -20 -14z"/>
<path d="M7607 2064 c5 -13 2 -15 -15 -10 -16 5 -25 1 -37 -18 -22 -33 -11
-63 29 -83 23 -10 36 -27 47 -56 11 -33 28 -50 81 -86 37 -26 82 -66 101 -91
41 -55 465 -631 554 -752 68 -95 77 -127 41 -152 -32 -23 -58 -20 -121 14 -31
16 -64 30 -72 30 -21 0 -34 -38 -25 -71 15 -52 33 -71 115 -125 46 -30 93 -69
104 -87 11 -18 34 -86 50 -151 46 -178 99 -253 200 -282 89 -27 161 -4 288 90
90 66 208 181 227 220 27 57 21 142 -14 202 -35 62 -76 96 -200 163 -117 64
-154 101 -176 178 -37 128 -81 183 -146 183 -34 0 -93 -51 -116 -99 -31 -65
-46 -55 -174 112 -64 83 -196 253 -292 376 -130 165 -176 231 -176 251 0 15
-7 33 -15 40 -12 10 -13 15 -4 21 15 9 3 42 -14 36 -6 -2 -11 -10 -9 -17 2 -8
-3 -10 -13 -6 -9 3 -19 6 -21 6 -2 0 -4 5 -4 10 0 6 7 10 16 10 20 0 13 24 -9
28 -10 2 -17 -3 -17 -12 0 -22 -6 -20 -46 10 -31 24 -50 55 -23 38 7 -4 10 1
7 12 -2 11 -10 19 -18 19 -8 0 -14 -6 -12 -12 3 -19 -12 -16 -37 6 -13 11 -28
22 -34 25 -9 5 -9 8 1 12 19 9 14 34 -8 34 -14 0 -18 -5 -13 -16z"/>
<path d="M1515 2039 c-4 -6 -4 -13 -1 -16 8 -8 36 5 36 17 0 13 -27 13 -35 -1z"/>
<path d="M7652 2038 c3 -7 13 -15 22 -16 12 -3 17 1 14 10 -3 7 -13 15 -22 16
-12 3 -17 -1 -14 -10z"/>
<path d="M1420 1965 c0 -8 6 -15 14 -15 8 0 16 7 20 15 4 10 -1 15 -14 15 -11
0 -20 -7 -20 -15z"/>
<path d="M7746 1965 c4 -8 12 -15 20 -15 8 0 14 7 14 15 0 8 -9 15 -20 15 -13
0 -18 -5 -14 -15z"/>
<path d="M4844 1813 c-29 -4 -32 -8 -38 -50 -3 -25 -6 -65 -6 -89 l0 -44 -50
0 -50 0 0 -60 0 -60 44 0 45 0 3 -227 c3 -222 4 -229 27 -262 42 -58 133 -84
230 -65 30 6 31 8 31 59 l0 52 -51 5 c-34 4 -58 12 -72 27 -21 20 -22 32 -26
216 l-3 195 71 0 71 0 0 60 0 60 -70 0 -70 0 0 95 0 95 -27 -2 c-16 0 -42 -3
-59 -5z"/>
<path d="M2566 1625 c-43 -15 -89 -54 -117 -100 l-19 -30 0 68 0 67 -75 0 -75
0 0 -335 0 -335 80 0 80 0 0 208 c0 196 1 210 23 252 28 56 63 81 119 87 40 5
49 2 79 -25 l34 -30 3 -246 3 -246 79 0 79 0 3 218 c3 196 5 220 23 251 32 54
69 76 127 76 43 0 53 -4 79 -33 l29 -32 0 -240 0 -240 80 0 80 0 0 263 c0 257
-1 265 -23 308 -32 60 -89 99 -158 106 -98 10 -167 -23 -230 -110 -26 -36 -28
-37 -34 -15 -31 100 -156 153 -269 113z"/>
<path d="M5372 1622 c-67 -24 -133 -88 -170 -162 -25 -50 -27 -65 -26 -170 0
-95 4 -123 21 -161 29 -64 77 -116 137 -147 45 -24 62 -27 146 -27 83 1 101 4
145 27 54 28 91 64 124 118 35 58 33 59 -74 75 -37 5 -41 3 -56 -27 -26 -53
-62 -73 -132 -73 -49 0 -69 5 -96 24 -39 28 -61 75 -61 131 l0 40 230 0 231 0
-7 63 c-21 189 -121 296 -284 304 -55 3 -89 -1 -128 -15z m178 -114 c42 -29
67 -64 75 -105 l7 -33 -153 0 -152 0 6 35 c17 102 135 158 217 103z"/>
<path d="M6089 1625 c-63 -20 -141 -93 -175 -162 -59 -119 -39 -299 43 -407
58 -76 115 -101 228 -101 78 0 97 4 141 27 61 32 118 93 147 156 17 38 21 67
21 157 1 98 -2 116 -25 166 -32 68 -87 125 -148 152 -59 26 -170 32 -232 12z
m192 -141 c43 -41 63 -118 57 -219 -8 -126 -50 -184 -135 -192 -39 -4 -55 0
-83 19 -57 38 -75 86 -75 203 0 117 18 165 75 203 49 33 118 27 161 -14z"/>
<path d="M6888 1617 c-42 -25 -72 -61 -93 -109 -14 -32 -14 -32 -15 45 l0 77
-70 0 -70 0 0 -335 0 -335 74 0 74 0 4 188 c3 179 4 189 30 245 23 48 34 61
70 77 24 11 53 20 66 20 21 0 22 4 22 75 l0 75 -27 0 c-16 0 -45 -10 -65 -23z"/>
<path d="M3470 1378 c0 -148 5 -269 11 -291 15 -55 72 -114 123 -128 56 -15
139 -5 182 22 20 12 49 43 65 68 l29 45 0 -67 0 -67 70 0 70 0 0 335 0 335
-74 0 -74 0 -4 -217 c-3 -183 -6 -223 -20 -250 -23 -42 -70 -74 -118 -80 -34
-5 -43 -1 -70 25 l-30 30 0 246 0 246 -80 0 -80 0 0 -252z"/>
<path d="M4170 1570 l0 -59 148 -3 148 -3 -163 -213 -163 -214 0 -59 0 -59
255 0 255 0 0 60 0 60 -165 0 c-91 0 -165 2 -165 5 0 3 74 102 165 221 l165
216 0 54 0 54 -240 0 -240 0 0 -60z"/>
</g>
</svg>
