<?xml version="1.0" standalone="no"?>
<!DOCTYPE svg PUBLIC "-//W3C//DTD SVG 20010904//EN"
 "http://www.w3.org/TR/2001/REC-SVG-20010904/DTD/svg10.dtd">
<svg version="1.0" xmlns="http://www.w3.org/2000/svg"
 width="512.000000pt" height="512.000000pt" viewBox="0 0 512.000000 512.000000"
 preserveAspectRatio="xMidYMid meet">

<g transform="translate(0.000000,512.000000) scale(0.100000,-0.100000)"
fill="#000000" stroke="none">
<path d="M2472 5099 c-47 -24 -83 -66 -101 -118 -8 -25 -11 -506 -11 -1798 0
-971 -3 -1763 -7 -1761 -5 2 -30 15 -58 29 -148 79 -335 121 -529 121 -623 -1
-1082 -454 -957 -944 73 -286 345 -519 700 -599 123 -28 312 -35 436 -16 435
67 754 342 805 693 6 44 10 699 10 1788 l0 1718 78 -69 c122 -109 166 -143
342 -263 334 -229 401 -281 508 -392 128 -134 213 -311 242 -503 23 -152 -8
-387 -79 -605 -59 -178 -119 -289 -265 -492 -55 -76 -55 -162 1 -236 50 -67
161 -93 239 -56 105 50 297 364 392 644 131 384 147 729 46 1030 -67 201 -155
348 -297 497 -112 117 -210 195 -457 364 -345 235 -443 318 -559 473 -131 174
-172 249 -201 364 -21 82 -109 151 -195 152 -22 0 -59 -10 -83 -21z"/>
</g>
</svg>
