<svg width="32" height="32" viewBox="0 0 32 32" fill="none" xmlns="http://www.w3.org/2000/svg">
    <rect width="32" height="32" rx="16" fill="#FF0000"/>
    <g clip-path="url(#clip0_194_2574)">
        <path d="M24.6325 11.8739C24.5291 11.51 24.3269 11.1783 24.0462 10.9123C23.7656 10.6463 23.4164 10.4553 23.0338 10.3584C21.6291 10 16 10 16 10C16 10 10.3694 10 8.96773 10.3584C8.58628 10.4561 8.23849 10.6475 7.95919 10.9135C7.67989 11.1795 7.4789 11.5107 7.37636 11.8739C7 13.2103 7 16 7 16C7 16 7 18.7897 7.37636 20.1261C7.4789 20.4893 7.67989 20.8205 7.95919 21.0865C8.23849 21.3525 8.58628 21.5439 8.96773 21.6416C10.3709 21.9944 16 21.9944 16 21.9944C16 21.9944 21.6306 21.9944 23.0338 21.6359C23.4157 21.5396 23.7644 21.3494 24.045 21.0845C24.3256 20.8195 24.5282 20.489 24.6325 20.1261C25.0074 18.7897 25.0074 16 25.0074 16C25.0074 16 25 13.2103 24.6325 11.8739Z"
              fill="white"/>
        <path d="M14.1992 18.5717L18.877 16.0007L14.1992 13.4297V18.5717Z" fill="#FF0000"/>
    </g>
    <defs>
        <clipPath id="clip0_194_2574">
            <rect width="18" height="12" fill="white" transform="translate(7 10)"/>
        </clipPath>
    </defs>
</svg>
